<?xml version="1.0" encoding="UTF-8" standalone="no"?><!DOCTYPE svg PUBLIC "-//W3C//DTD SVG 1.1//EN" "http://www.w3.org/Graphics/SVG/1.1/DTD/svg11.dtd"><svg width="100%" height="100%" viewBox="0 0 2088 2084" version="1.1" xmlns="http://www.w3.org/2000/svg" xmlns:xlink="http://www.w3.org/1999/xlink" xml:space="preserve" xmlns:serif="http://www.serif.com/" style="fill-rule:evenodd;clip-rule:evenodd;stroke-linejoin:round;stroke-miterlimit:2;"><rect id="fast-duck" x="0.613" y="-0" width="2083.33" height="2083.33" style="fill:none;"/><g><path id="Right-Wing-Extended" serif:id="Right Wing Extended" d="M1284.61,440.194c-29.795,-0.167 20.632,124.906 10.703,126.939c-9.929,2.034 -57.794,-104.259 -70.277,-114.737c-15.335,5.242 0.189,47.912 -4.624,51.869c-4.812,3.957 -15.159,-29.613 -24.251,-28.128c-22.582,14.706 17.599,94.513 12.159,103.259c-5.44,8.746 -29.71,-52.636 -44.802,-50.783c-21.802,17.022 38.356,129.14 31.39,141.027c-6.966,11.886 -65.032,-76.181 -73.184,-69.708c-21.97,19.1 29.992,94.99 24.274,108.547c-5.718,13.557 -54.929,-40.593 -58.583,-27.202c-12.473,27.794 37.994,93.659 36.659,107.547c-1.334,13.887 -41.489,-35.121 -44.667,-24.221c-17.085,25.587 26.166,74.439 25.599,89.622c-0.362,9.674 -29.482,-8.191 -29.004,1.478c1.285,25.949 31.462,63.105 32.877,76.742c0.856,8.26 -24.908,-3.209 -24.392,5.08c1.985,31.911 26.201,51.389 28.67,63.708c1.127,5.626 -15.113,4.608 -13.86,10.207c2.118,9.468 20.633,34.135 26.569,46.602c4.243,8.912 2.858,21.216 9.046,28.198c36.485,41.168 191.477,118.939 262.841,103.356c43.347,-9.465 84.33,-56.313 93.838,-94.397c9.507,-38.085 -28.596,-88.485 -36.795,-134.109c-8.231,-45.807 2.035,-95.962 -12.591,-140.73c-28.365,-86.816 -133.113,-337.961 -157.595,-380.166Z" style="fill:#f7cb15;"/><path id="Left-Wing-Extended" serif:id="Left Wing Extended" d="M691.132,506.464c-32.256,21.761 114.233,119.51 105.023,129.015c-9.21,9.506 -139.106,-69.877 -160.285,-71.984c-12.677,16.946 35.488,51.532 33.211,59.343c-2.276,7.811 -38.156,-20.773 -46.868,-12.476c-13.523,32.489 88.582,88.967 89.155,102.405c0.574,13.439 -70.802,-34.887 -85.714,-21.773c-10.976,34.412 136.466,111.025 137.707,128.973c1.242,17.949 -126.234,-34.265 -130.258,-21.282c-9.629,36.778 102.297,80.354 106.114,99.186c3.817,18.832 -89.132,-3.326 -83.211,13.806c7.017,39.16 109.947,73.027 118.734,88.987c8.788,15.96 -70.607,-7.323 -66.007,6.772c0.417,40.177 83.037,61.01 93.606,77.802c6.734,10.699 -37.827,12.877 -30.191,22.952c20.495,27.038 80.402,44.886 91.97,58.551c7.007,8.278 -29.225,14.881 -22.564,23.441c25.64,32.953 66.101,36.125 77.835,47.593c5.358,5.237 -12.906,16.098 -7.431,21.214c9.257,8.651 47.839,22.009 62.972,30.692c10.15,5.824 16.896,17.22 27.823,21.409c75.68,29.02 270.86,2.827 328.942,-66.475c37.217,-44.405 52.227,-135.233 39.988,-185.52c-12.238,-50.287 -77.399,-75.801 -113.417,-116.202c-38.439,-43.117 -68.473,-104.988 -117.216,-142.496c-94.522,-72.739 -392.435,-266.447 -449.918,-293.933Z" style="fill:#fed62d;"/><path d="M1658.67,836.873c-76.702,-0.557 -177.709,-22.708 -177.709,-26.275c9.12,-53.366 24.268,-150.817 82.903,-208.815c28.245,-27.938 98.539,-30.871 151.923,-28.954c59.72,2.145 148.479,67.195 154.968,154.465c4.211,56.65 -63.092,105.581 -164.794,108.886c-17.142,0.56 -32.827,0.798 -47.291,0.693Z" style="fill:#fed62d;fill-rule:nonzero;"/><path d="M1735.33,678.897c-21.391,0.269 -42.355,5.555 -49.856,13.472c0,0 -11.658,-30.114 9.157,-36.875c26.854,-8.724 40.699,23.403 40.699,23.403Z" style="fill-rule:nonzero;"/><g><path d="M1933.13,760.172c31.179,15.135 122.872,38.623 73.523,61.031c-10.467,4.752 -57.061,12.431 -102.074,3.837c-56.194,-10.728 -106.634,-32.074 -93.976,-38.832c29.231,-15.605 16.217,-72.376 12.172,-88.761c-4.044,-16.388 53.847,26.342 44.192,5.955c35.152,19.453 37.618,42.913 66.163,56.77Z" style="fill:#f46322;fill-rule:nonzero;"/></g><path d="M1230.44,1603.68l31.456,57.425l56.531,48.152l183.724,12.202c0,0 -55.718,38.812 -21.191,98.592c-72.44,-15.107 -120.534,45.072 -120.534,45.072l-96.924,-130.544l-48.638,-42.835l-37.264,-70.605l52.84,-17.459Z" style="fill:#f46322;fill-rule:nonzero;"/><path id="Body-Side" serif:id="Body Side" d="M1462.02,1012.69c44.144,1.609 46.836,-14.906 90.839,-11.032c30.668,2.7 62.949,9.573 91.692,19.77c45.995,16.317 65.388,32.371 72.149,62.216c25.093,110.756 40.999,233.332 -103.334,348.37c-137.276,109.413 -350.633,166.116 -366.365,171.663c-1.682,0.604 -3.366,1.209 -5.091,1.727c-12.342,4.229 -24.772,7.724 -37.243,10.529c-24.944,5.568 -59.359,26.091 -165.812,26.091c-28.661,0 -55.37,-12.774 -81.607,-22.53c-56.835,-21.187 -108.062,-50.533 -153.85,-88.077c0,0 -62.791,-46.739 -108.276,-118.419c-84.585,-130.243 -110.781,-300.321 -93.604,-333.335c8.328,-16.052 33.315,14.329 45.14,65.728c-16.529,-77.335 -1.725,-79.883 9.796,-69.609c9.607,8.529 20.636,37.284 42.004,79.258c20.578,40.424 209.131,16.733 209.131,16.733c-0,-0 171.588,-87.105 329.548,-134.25c88.266,-26.344 159.835,-27.204 224.883,-24.833Z" style="fill:#fed62d;fill-rule:nonzero;"/><path id="Neck-Front" serif:id="Neck Front" d="M1705.65,1058.55c12.773,17.213 -37.772,128.056 -108.439,132.815c-77.183,5.198 -164.537,-67.29 -161.495,-75.333c11.83,-17.494 35.131,-67.252 45.511,-126.074c10.42,-59.053 -2.004,-171.941 0.46,-180.831c7.625,-27.517 170.481,-18.058 171.67,34.711c-1.048,4.918 -1.417,95.353 16.139,148.049c8.658,25.988 23.027,48.972 36.154,66.663Z" style="fill:#fed62d;fill-rule:nonzero;"/><path d="M867.908,1449l-40.483,54.781l18.307,107.913c6.533,66.474 25.259,125.982 50.978,181.493c0,-0 -41.154,-31.247 -76.804,57.301c-24.919,-77.307 -87.393,-62.506 -87.393,-62.506c2.148,-63.849 20.74,-129.069 55.777,-195.66l-18.371,-105.266l46.207,-96.058l51.782,58.002Z" style="fill:#f46322;fill-rule:nonzero;"/></g><g><g><path d="M400.235,857.545c-17.439,-2.438 -329.44,-20.832 -341.439,-7.226c-11.999,13.606 2.762,60.281 20.2,62.719c17.439,2.438 321.677,-8.341 333.676,-21.948c7.888,-8.944 -0.626,-31.894 -12.437,-33.545Zm73.123,-102.304c-12.214,-12.684 -337.075,-70.848 -354.914,-67.551c-17.839,3.297 -35.04,49.129 -22.826,61.812c12.214,12.683 348.977,43.104 366.816,39.807c11.727,-2.167 19.196,-25.478 10.924,-34.068Z" style="fill:#3168d3;"/></g><g><path d="M453.11,950.835c-17.593,0.737 -271.389,38.892 -280.746,54.434c-9.356,15.542 13.557,58.802 31.15,58.064c17.593,-0.738 261.022,-67.067 270.378,-82.609c6.151,-10.218 -8.867,-30.389 -20.782,-29.889Z" style="fill:#3168d3;"/></g></g></svg>