<?xml version="1.0" encoding="UTF-8"?>
<svg xmlns="http://www.w3.org/2000/svg" width="265" height="39" viewBox="0 0 265 39" fill="none"><path d="M250.062 27.4289H264.567V32.5057H244.296V6.52963H264.567V11.6064H250.062V16.8806H261.593V21.9395H249.989L250.062 27.4289ZM222.583 6.52963H216.817V32.5057H237.089V27.4289H222.583V6.52963ZM210.212 24.9533C210.207 26.9453 209.4 28.8544 207.968 30.263C206.535 31.6716 204.593 32.4651 202.567 32.4698H187.788V6.52963H201.728C203.204 6.53587 204.647 6.96235 205.883 7.75754C207.118 8.55274 208.093 9.68262 208.689 11.0107C209.285 12.3387 209.478 13.8081 209.243 15.2414C209.008 16.6746 208.356 18.0103 207.366 19.0871C208.253 19.7922 208.969 20.6831 209.462 21.6948C209.954 22.7066 210.21 23.8137 210.212 24.9353V24.9533ZM200.706 11.6244H193.59V16.9344H200.706C201.377 16.8799 202.002 16.5794 202.458 16.0925C202.914 15.6057 203.167 14.9681 203.167 14.3063C203.167 13.6445 202.914 13.0069 202.458 12.5201C202.002 12.0333 201.377 11.7327 200.706 11.6782V11.6244ZM204.246 24.738C204.246 24.0148 203.954 23.3212 203.433 22.8099C202.913 22.2985 202.208 22.0112 201.472 22.0112H193.59V27.393H201.472C202.208 27.393 202.913 27.1057 203.433 26.5944C203.954 26.083 204.246 25.3894 204.246 24.6662V24.738ZM173.702 32.5057H179.486V6.52963H173.702V32.5057ZM154.653 16.9165V21.9753H159.817V26.2628C158.204 27.3354 156.289 27.8814 154.343 27.8236C153.258 27.8353 152.182 27.6273 151.183 27.2125C150.183 26.7977 149.282 26.1849 148.534 25.4124C147.786 24.6399 147.207 23.7242 146.835 22.7224C146.463 21.7206 146.304 20.6541 146.369 19.5894C146.31 18.5604 146.46 17.53 146.81 16.5585C147.161 15.587 147.704 14.6937 148.409 13.9307C149.113 13.1676 149.965 12.5501 150.915 12.1141C151.865 11.6782 152.894 11.4324 153.941 11.3912C156.501 11.3374 158.98 12.2786 160.838 14.0103L164.488 9.68694C161.64 7.20952 157.922 5.92228 154.124 6.09908C152.312 6.06061 150.511 6.38006 148.828 7.03852C147.144 7.69697 145.612 8.68103 144.322 9.93237C143.032 11.1837 142.011 12.6769 141.319 14.3234C140.627 15.9699 140.278 17.7362 140.293 19.5177C140.241 21.309 140.566 23.0916 141.248 24.7534C141.93 26.4152 142.954 27.9203 144.257 29.1739C145.559 30.4275 147.112 31.4026 148.816 32.0377C150.52 32.6728 152.34 32.9543 154.16 32.8645C158.302 32.8714 162.307 31.406 165.436 28.7385V16.9165H154.653ZM109.403 32.5057H115.132V16.0195L127.904 32.5057H132.831V6.52963H127.101V22.4956L114.749 6.52963H109.403V32.5057ZM103.601 32.5057H97.5247L95.4264 27.4289H83.6577L81.5411 32.5057H75.6294L86.8507 6.52963H92.3245L103.601 32.5057ZM93.1638 21.9753L89.5146 13.2389L85.8654 21.9753H93.1638ZM52.9131 6.52963V11.6064H61.6164V32.5057H67.4187V11.6423H76.122V6.52963H52.9131Z" fill="#007bff"/><rect x="13" y="26" width="13" height="13" fill="#007bff"/><path fill-rule="evenodd" clip-rule="evenodd" d="M0 0H13H26H39V13V26H26V13H13V26H0V13V0Z" fill="#007bff"/></svg>