<?xml version="1.0" encoding="UTF-8" standalone="no"?><!DOCTYPE svg PUBLIC "-//W3C//DTD SVG 1.1//EN" "http://www.w3.org/Graphics/SVG/1.1/DTD/svg11.dtd"><svg width="100%" height="100%" viewBox="0 0 3363 1280" version="1.1" xmlns="http://www.w3.org/2000/svg" xmlns:xlink="http://www.w3.org/1999/xlink" xml:space="preserve" xmlns:serif="http://www.serif.com/" style="fill-rule:evenodd;clip-rule:evenodd;stroke-linejoin:round;stroke-miterlimit:2;"><g id="logo"><path d="M371.923,1066.11l-0,59.025l-114.242,40.938c-0,-0 47.125,28.558 15.229,83.775c58.55,-35.7 98.058,25.229 98.058,25.229l51.688,-126.554l0.408,-95.063l-51.141,12.65Z" style="fill:#f46322;fill-rule:nonzero;"/><path d="M209.504,1054.36l0,57.012l-87.458,22.504c-0,0 19.954,21.65 -2.546,43.3c30.992,-10.612 42.029,21.229 42.029,21.229l84.884,-70.433l-0,-70.9l-36.909,-2.712Z" style="fill:#f46322;fill-rule:nonzero;"/><path d="M827.011,916.224l-115.075,109.046l15.829,16.287c12.4,13.854 24.204,22.921 35.45,27.196c11.163,4.275 25.829,6.458 43.963,6.458l173.145,0l-153.312,-158.987Z" style="fill:#fed62d;fill-rule:nonzero;"/><path d="M286.705,933.92c-20.783,-7.871 -38.87,-19.075 -54.35,-33.612c-15.483,-14.542 -27.795,-32.33 -36.862,-53.325c-9.067,-20.955 -13.558,-44.6 -13.558,-70.817c-0,-35.792 8.683,-69.275 26.087,-100.538c17.404,-31.216 45.158,-59.266 83.346,-84.07l271.162,279.758c-9.487,7.854 -19.345,15.121 -29.57,21.825l-94.713,-97.7c-6.579,-6.788 -17.412,-6.954 -24.192,-0.375c-6.779,6.575 -6.95,17.404 -0.375,24.187l88.792,91.588c-10.275,5.25 -20.887,9.987 -31.842,14.217l-79.741,-82.259c-6.579,-6.787 -17.413,-6.95 -24.188,-0.375c-6.783,6.575 -6.954,17.404 -0.379,24.188l67.742,69.875c-12.571,3.041 -25.567,5.321 -38.963,6.862l-51.571,-53.196c-6.57,-6.783 -17.4,-6.941 -24.187,-0.375c-6.783,6.58 -6.95,17.405 -0.375,24.188l30.721,31.687c-22.175,-0.345 -43.188,-4.266 -62.984,-11.733m569.609,-413.65c-8.254,-15.908 -33.017,14.2 -44.734,65.129c16.38,-76.633 1.713,-79.154 -9.704,-68.975c-18.687,16.592 -42.808,110.413 -139.196,228.954l-274.712,-285.445c-15.779,-16.209 -28.992,-31.346 -39.725,-45.413c-10.733,-14.112 -19.417,-27.8 -26.129,-41.183c-6.671,-13.342 -11.459,-26.642 -14.325,-40.067c-2.825,-13.3 -4.234,-27.158 -4.234,-41.442c0,-10.25 1.025,-20.204 3.075,-29.816c13.196,0.096 27.509,-0.125 43.15,-0.634c92.8,-3.016 154.209,-47.666 150.371,-99.354c-5.921,-79.633 -62.271,-173.037 -170.666,-156.7c-131.805,19.859 -172.596,160.192 -184.93,232.338c-0.025,0.125 -0.054,0.25 -0.079,0.371c-3.679,17.875 -5.516,36.308 -5.516,55.208c-0,33.871 5.77,67.867 17.187,101.95c11.463,34.125 30.025,69.021 55.808,104.767c-30.575,14.329 -58.67,31.387 -84.412,51.187c-25.788,19.8 -47.983,42.079 -66.542,66.883c-18.646,24.805 -33.183,51.659 -43.658,80.48c-10.479,28.866 -15.738,59.483 -15.738,91.941c0,45.8 9.192,86.938 27.538,123.417c18.346,36.517 42.55,67.608 72.612,93.392c30.021,25.745 64.275,45.416 102.717,58.97c1.671,0.6 3.333,1.2 5.046,1.713c12.233,4.187 24.546,7.654 36.904,10.433c24.717,5.517 49.738,8.296 75.008,8.296c17.146,0 33.996,-0.729 50.505,-2.179c17.362,-1.5 34.337,-3.85 51.016,-6.971c27.921,-5.175 54.863,-12.658 80.863,-22.325c56.321,-20.996 107.079,-50.075 152.45,-87.279c-0,-0 62.221,-46.313 107.296,-117.342c83.816,-129.058 109.77,-297.587 92.754,-330.304" style="fill:#fed62d;fill-rule:nonzero;"/><path d="M416.255,188.807c-3.946,1.504 -18.671,3.65 1.47,22.216c33.075,30.484 62.542,42.871 122.959,59.775c58.887,16.475 -89.617,-95.254 -124.429,-81.991" style="fill:#c43a05;fill-rule:nonzero;"/><path d="M569.504,205.724c26.575,24.162 120.804,32.212 61.204,69.262c-59.592,37.046 -244.821,-77.316 -212.608,-86.979c32.212,-9.662 17.716,-52.346 20.937,-69.262c3.221,-16.913 26.575,30.604 53.154,39.462c0,0 9.663,2.417 4.829,-19.325c24.163,33.017 72.484,66.842 72.484,66.842" style="fill:#f46322;fill-rule:nonzero;"/><path d="M370.195,115.321c0,12.05 -9.766,21.816 -21.816,21.816c-12.05,0 -21.821,-9.766 -21.821,-21.816c-0,-12.05 9.771,-21.817 21.821,-21.817c12.05,-0 21.816,9.767 21.816,21.817" style="fill-rule:nonzero;"/><path d="M1480.21,487.045l-364.683,0c-5.783,0 -8.667,-2.667 -8.667,-8l0,-34c0,-5.333 2.884,-8 8.667,-8l50.671,0l-0,-378.683l-50.671,-0c-5.783,-0 -8.667,-2.667 -8.667,-8l0,-34.004c0,-5.334 2.884,-8 8.667,-8l159.342,-0c5.77,-0 8.666,2.895 8.666,8.666l0,32.671c0,5.779 -2.896,8.667 -8.666,8.667l-50.671,-0l-0,378.683l212.008,0l0,-65.337c0,-5.334 2.888,-8 8.671,-8l36,-0c5.333,-0 8,2.666 8,8l-0,106.67c-0,5.784 -2.896,8.667 -8.667,8.667" style="fill:#295cbf;fill-rule:nonzero;"/><path d="M1629.88,386.707c34,34.004 73.671,51.004 119.004,51.004c45.333,0 84.892,-17 118.671,-51.004c33.771,-34 50.671,-80.671 50.671,-140.004c-0,-59.337 -17.234,-105.775 -51.671,-139.337c-34.45,-33.559 -73.667,-50.338 -117.671,-50.338c-44.004,0 -83.338,16.779 -118.004,50.338c-34.671,33.562 -52.004,80 -52.004,139.337c-0,59.333 17,106.004 51.004,140.004m350.346,-141.337c-0,73.116 -21.892,132.454 -65.667,178.008c-43.784,45.563 -98.9,68.333 -165.342,68.333c-66.45,0 -121.9,-23 -166.341,-69c-44.45,-46.004 -66.667,-105.341 -66.667,-178.008c-0,-72.671 22.883,-130.892 68.667,-174.675c45.774,-43.775 100.441,-65.671 164.008,-65.671c63.554,0 118.004,21.896 163.342,65.671c45.333,43.783 67.999,102.233 67.999,175.342" style="fill:#295cbf;fill-rule:nonzero;"/><path d="M2159.91,386.707c34,34.004 73.67,51.004 119.004,51.004c45.333,0 84.891,-17 118.671,-51.004c33.77,-34 50.67,-80.671 50.67,-140.004c0,-59.337 -17.233,-105.775 -51.67,-139.337c-34.45,-33.559 -73.671,-50.338 -117.671,-50.338c-44,0 -83.334,16.779 -118.009,50.338c-34.666,33.562 -52,80 -52,139.337c0,59.333 17.005,106.004 51.005,140.004m350.345,-141.337c0,73.116 -21.895,132.454 -65.67,178.008c-43.784,45.563 -98.896,68.333 -165.338,68.333c-66.454,0 -121.9,-23 -166.342,-69c-44.45,-46.004 -66.666,-105.341 -66.666,-178.008c-0,-72.671 22.883,-130.892 68.666,-174.675c45.775,-43.775 100.446,-65.671 164.009,-65.671c63.554,0 118.004,21.896 163.341,65.671c45.338,43.783 68,102.233 68,175.342" style="fill:#295cbf;fill-rule:nonzero;"/><path d="M2660.93,259.036l86.671,-0c74.671,-0 112.008,-32.888 112.008,-98.671c0,-34.221 -10.566,-59.775 -31.67,-76.671c-21.117,-16.883 -47.667,-25.333 -79.671,-25.333l-87.338,-0l0,200.675Zm65.338,228.008l-174.009,0c-5.783,0 -8.666,-2.662 -8.666,-8l-0,-34c-0,-5.333 2.883,-8 8.666,-8l50.667,0l0,-378.683l-50.667,-0c-5.783,-0 -8.666,-2.667 -8.666,-8l-0,-34.004c-0,-5.329 2.883,-8 8.666,-8l205.342,-0c47.108,-0 85.671,13.671 115.671,41.004c30.004,27.333 45.004,64.229 45.004,110.671c0,46.45 -14.671,82.45 -44.004,108.004c-29.333,25.562 -70.671,38.333 -124.004,38.333l-89.338,0l0,130.675l65.338,0c5.333,0 8,2.667 8,8l-0,34c-0,5.338 -2.667,8 -8,8" style="fill:#295cbf;fill-rule:nonzero;"/><path d="M3025.6,487.045l-37.333,0c-5.784,0 -8.667,-2.667 -8.667,-8l-0,-156.004c-0,-5.775 2.883,-8.667 8.667,-8.667l42,0c5.333,0 8,2.892 8,8.667l-0,14c-0,8.446 5.108,19.667 15.337,33.667c10.217,14 20.438,25.45 30.667,34.333c10.216,8.9 23.883,16.562 41,23c17.104,6.45 35.666,9.671 55.671,9.671c34.22,-0 61.004,-7.104 80.337,-21.334c19.333,-14.22 29,-34.004 29,-59.337c0,-14.667 -5.446,-27.221 -16.333,-37.671c-10.9,-10.437 -25,-18.771 -42.338,-25c-17.333,-6.217 -36.562,-12 -57.666,-17.333c-21.117,-5.334 -42.23,-11.438 -63.338,-18.334c-21.117,-6.887 -40.333,-15.104 -57.667,-24.67c-17.337,-9.55 -31.45,-22.884 -42.337,-40c-10.896,-17.105 -16.338,-37.221 -16.338,-60.338c0,-37.333 14.109,-68.221 42.342,-92.667c28.217,-24.441 66.104,-36.67 113.671,-36.67c60,-0 104.004,17.562 132.004,52.67l-1.333,-41.337c-0,-5.333 2.887,-8 8.666,-8l37.334,-0c5.337,-0 8,2.667 8,8l-0,145.342c-0,5.333 -2.663,8 -8,8l-42,-0c-5.334,-0 -8,-2.667 -8,-8l-0,-18.671c-0,-18.217 -10.229,-36.667 -30.667,-55.334c-20.45,-18.666 -50.454,-28 -90.008,-28c-29.334,0 -53,7 -71,21c-18,14 -27,31.896 -27,53.667c-0,15.567 5.55,28.9 16.666,40.004c11.105,11.113 25.555,20 43.334,26.667c17.775,6.667 37.333,12.783 58.671,18.333c21.333,5.567 42.67,11.667 64.004,18.338c21.333,6.666 40.883,14.666 58.666,24c17.771,9.333 32.221,22.112 43.334,38.333c11.108,16.233 16.671,35.45 16.671,57.671c-0,39.117 -14,71.333 -42.005,96.671c-28,25.333 -69.783,38 -125.337,38c-40.896,-0 -74.671,-8.221 -101.338,-24.667c-26.67,-16.437 -46,-34.221 -58,-53.337l0.663,65.337c-0,5.333 -2.667,8 -8,8" style="fill:#295cbf;fill-rule:nonzero;"/><path d="M1480.21,1073.74l-364.683,0c-5.783,0 -8.667,-2.666 -8.667,-8l0,-34c0,-5.333 2.884,-8 8.667,-8l50.671,0l-0,-378.683l-50.671,-0c-5.783,-0 -8.667,-2.667 -8.667,-8l0,-34.004c0,-5.334 2.884,-8 8.667,-8l159.342,-0c5.77,-0 8.666,2.896 8.666,8.666l0,32.671c0,5.779 -2.896,8.667 -8.666,8.667l-50.671,-0l-0,378.683l212.008,0l0,-65.337c0,-5.334 2.888,-8 8.671,-8l36,-0c5.333,-0 8,2.666 8,8l-0,106.671c-0,5.783 -2.896,8.666 -8.667,8.666" style="fill:#295cbf;fill-rule:nonzero;"/><path d="M1668.58,973.4c34.004,34.004 73.671,51.004 119.008,51.004c45.334,-0 84.888,-17 118.667,-51.004c33.775,-34 50.671,-80.671 50.671,-140.004c-0,-59.338 -17.229,-105.775 -51.667,-139.342c-34.45,-33.554 -73.671,-50.333 -117.671,-50.333c-44.004,-0 -83.337,16.779 -118.008,50.333c-34.667,33.567 -52,80.004 -52,139.342c-0,59.333 17,106.004 51,140.004m350.35,-141.338c-0,73.117 -21.9,132.454 -65.671,178.009c-43.783,45.562 -98.9,68.333 -165.342,68.333c-66.45,-0 -121.9,-23 -166.337,-69c-44.45,-46.004 -66.671,-105.342 -66.671,-178.013c0,-72.666 22.883,-130.887 68.671,-174.67c45.771,-43.775 100.442,-65.671 164.008,-65.671c63.55,-0 118.004,21.896 163.338,65.671c45.337,43.783 68.004,102.233 68.004,175.341" style="fill:#295cbf;fill-rule:nonzero;"/><path d="M2551.64,1073.74l-35.333,0c-5.779,0 -8.671,-2.666 -8.671,-8l0.671,-46c-39.117,39.117 -91.233,58.667 -156.342,58.667c-65.116,-0 -119.454,-22.667 -163.008,-68.004c-43.562,-45.334 -65.337,-104.888 -65.337,-178.675c-0,-49.334 11.004,-92.667 33.004,-130.004c22.004,-37.334 50,-65.105 84.004,-83.338c34.004,-18.217 70.775,-27.333 110.337,-27.333c68.005,-0 116.892,21.116 146.675,63.337l-0.666,-51.337c-0.896,-5.334 1.771,-8 8,-8l37.333,-0c5.775,-0 8.667,2.666 8.667,8l-0,137.341c-0,5.334 -2.892,8 -8.667,8l-42,0c-5.337,0 -8,-2.666 -8,-8l0,-8c0,-19.554 -13.45,-38.887 -40.337,-58.004c-26.896,-19.104 -61.23,-28.666 -103.005,-28.666c-41.783,-0 -79.45,17.229 -113.004,51.666c-33.562,34.45 -50.337,80.45 -50.337,138.009c-0,57.562 16.887,103.116 50.671,136.67c33.775,33.563 71.554,50.338 113.341,50.338c41.771,-0 74.771,-6.667 99,-20.004c24.221,-13.334 42.334,-29.104 54.334,-47.334l-0,-52l-124,0c-5.338,0 -8,-2.887 -8,-8.67l-0,-30.667c-0,-5.333 2.662,-8 8,-8l172.67,-0c5.334,-0 8,2.667 8,8l0,202.008c0,5.334 -2.666,8 -8,8" style="fill:#295cbf;fill-rule:nonzero;"/><path d="M2833.68,1073.74l-160.004,0c-5.784,0 -8.667,-2.666 -8.667,-8l0,-34c0,-5.333 2.883,-8 8.667,-8l50.666,0l0,-378.683l-50.666,-0c-5.784,-0 -8.667,-2.667 -8.667,-8l0,-34.004c0,-5.334 2.883,-8 8.667,-8l160.004,-0c5.775,-0 8.666,2.666 8.666,8l0,34.004c0,5.333 -2.891,8 -8.666,8l-51.334,-0l0,378.683l51.334,0c5.775,0 8.666,2.667 8.666,8l0,34c0,5.334 -2.891,8 -8.666,8" style="fill:#295cbf;fill-rule:nonzero;"/><path d="M3355.73,953.067c2.221,1.779 3.338,3.896 3.338,6.333c-0,2.446 -1,5.779 -3.005,10c-1.995,4.229 -5.333,9.783 -9.995,16.667c-4.667,6.896 -13,16.333 -25.005,28.337c-11.999,12 -25.116,22.334 -39.337,31c-14.229,8.667 -33,16.334 -56.333,23c-23.334,6.667 -48.338,10 -75.005,10c-64.895,0 -119.004,-22.666 -162.337,-68.004c-43.338,-45.333 -65.004,-104.775 -65.004,-178.342c-0,-73.554 21.883,-132.108 65.671,-175.67c43.771,-43.555 96.554,-65.338 158.337,-65.338c68.888,0 118.892,23.783 150.009,71.338l-0.667,-59.338c-0.896,-5.333 1.771,-8 8,-8l37.337,0c5.767,0 8.667,2.667 8.667,8l0,145.342c0,5.779 -2.9,8.666 -8.667,8.666l-42.004,0c-5.337,0 -8,-2.887 -8,-8.666l0,-6c0,-20.442 -13.896,-41.671 -41.666,-63.671c-27.784,-22 -62.338,-33 -103.675,-33c-41.334,-0 -78.567,16.333 -111.671,49c-33.117,32.667 -49.671,78.9 -49.671,138.675c-0,59.779 16.671,106.233 50.004,139.337c33.333,33.117 72.442,49.671 117.338,49.671c48.437,0 86.67,-10.887 114.675,-32.671c21.766,-16.883 37.77,-34 47.999,-51.337c3.555,-6.667 7.771,-7.996 12.667,-3.996l28,18.667Z" style="fill:#295cbf;fill-rule:nonzero;"/></g></svg>