<?xml version="1.0" encoding="UTF-8" standalone="no"?><!DOCTYPE svg PUBLIC "-//W3C//DTD SVG 1.1//EN" "http://www.w3.org/Graphics/SVG/1.1/DTD/svg11.dtd"><svg width="100%" height="100%" viewBox="0 0 2084 2084" version="1.1" xmlns="http://www.w3.org/2000/svg" xmlns:xlink="http://www.w3.org/1999/xlink" xml:space="preserve" xmlns:serif="http://www.serif.com/" style="fill-rule:evenodd;clip-rule:evenodd;stroke-linejoin:round;stroke-miterlimit:2;"><rect id="shocked-duck" x="-0.002" y="-0" width="2083.33" height="2083.33" style="fill:none;"/><g><g><path d="M828.808,1610.34l-49.143,44.26l-2.357,100.496l-28.674,145.804c-0,0 -21.24,-25.847 -73.058,33.399c-10.337,-83.735 -66.817,-82.225 -66.817,-82.225l113.725,-127.952l1.556,-91.082l66.135,-108.884l38.633,86.184Z" style="fill:#f46322;fill-rule:nonzero;"/><path d="M1149.56,1599.24l60.589,40.736l33.468,72.124l153.506,-1.019c-0,-0 -54.536,33.052 -17.627,96.955c-77.438,-16.149 -113.484,29.197 -113.484,29.197l-81.109,-98.064l-25.03,-66.44l-66.799,-54.826l56.486,-18.663Z" style="fill:#f46322;fill-rule:nonzero;"/><path id="Left-Wing-Extended" serif:id="Left Wing Extended" d="M2008,727.81c24.527,29.238 -140.011,81.789 -133.897,93.241c6.113,11.452 150.041,-28.27 170.579,-24.531c7.37,19.404 -47.391,38.99 -47.356,46.969c0.034,7.98 41.59,-9.268 47.56,0.91c3.966,34.287 -107.569,59.928 -111.743,72.443c-4.174,12.515 76.185,-13.749 86.698,2.646c1.045,35.412 -158.677,67.778 -164.7,84.364c-6.024,16.587 128.278,1.825 128.561,15.154c-0.865,37.277 -118.171,48.099 -126.861,64.822c-8.69,16.723 84.933,20.962 74.719,35.514c-17.203,35.023 -123.402,39.123 -136.003,51.794c-12.6,12.671 68.549,12.186 60.401,24.232c-11.255,37.766 -94.782,35.069 -109.287,48.043c-9.241,8.267 32.182,22.368 22.259,29.802c-26.634,19.951 -87.939,20.58 -102.54,30.336c-8.844,5.91 23.529,21.932 14.936,28.201c-33.084,24.136 -72.087,16.187 -86.251,23.827c-6.468,3.488 7.815,18.666 1.27,22.01c-11.066,5.653 -50.524,7.569 -67.668,11.91c-12.256,3.104 -23.253,14.53 -35.196,14.138c-70.419,-2.308 -273.82,-91.522 -316.809,-174.62c-26.111,-50.472 -13.435,-129.183 16.338,-169.695c29.773,-40.513 110.616,-44.158 162.299,-73.381c51.89,-29.339 92.942,-80.469 149.038,-102.654c108.781,-43.021 442.027,-145.102 503.653,-155.475Zm-1921.6,-52.726c-27.154,26.816 131.748,94.525 124.59,105.354c-7.158,10.83 -146.74,-42.178 -167.537,-40.375c-9.153,18.629 43.536,43.25 42.756,51.192c-0.78,7.941 -40.542,-13.117 -47.437,-3.542c-7.155,33.765 101.492,69.725 104.478,82.575c2.985,12.85 -74.565,-20.813 -86.566,-5.474c-4.351,35.159 151.644,82.321 156.089,99.398c4.446,17.077 -127.887,-10.18 -129.415,3.064c-2.625,37.195 113.154,58.94 120.243,76.402c7.088,17.462 -86.521,12.928 -77.713,28.371c13.852,36.478 119.202,50.492 130.562,64.286c11.36,13.794 -69.387,5.722 -62.402,18.477c7.674,38.653 91.087,43.78 104.315,58.054c8.428,9.094 -34.132,19.26 -24.948,27.589c24.651,22.354 85.629,28.714 99.253,39.793c8.253,6.711 -25.477,19.635 -17.508,26.68c30.682,27.125 70.258,22.858 83.645,31.789c6.113,4.078 -9.526,17.854 -3.323,21.794c10.489,6.664 50.098,12.556 66.257,18.187c10.838,3.777 19.405,13.54 30.696,15.601c78.205,14.275 261.608,-46.304 305.052,-123.621c27.838,-49.542 25.865,-139.812 4.965,-186.071c-20.899,-46.26 -88.33,-59.059 -130.363,-91.484c-44.858,-34.604 -85.009,-88.809 -138.784,-116.142c-104.281,-53.007 -426.519,-185.806 -486.905,-201.897Z" style="fill:#fed62d;"/><path id="Body-Front" serif:id="Body Front" d="M1277.62,1548.6c60.325,-205.631 -13.747,-422.138 -74.213,-503.405c-35.257,-47.385 -106.177,-63.898 -190.31,-70.053c-94.281,-6.898 -150.276,-0.901 -193.98,50.619c-157.012,185.091 -118.673,427.653 -52.277,551.899c22.909,42.869 55.874,87.433 103.126,104.094c2.048,0.735 4.099,1.473 6.2,2.103c15.031,5.151 30.169,9.407 45.358,12.824c30.379,6.78 61.124,10.197 92.186,10.197c21.077,-0 41.785,-0.892 62.072,-2.682c21.338,-1.839 42.206,-4.729 62.702,-8.564c34.321,-6.362 110.207,-48.418 139.136,-147.032Z" style="fill:#fed62d;fill-rule:nonzero;"/><path id="Neck-Front" serif:id="Neck Front" d="M832.967,1012.33c-5.096,6.446 74.409,105.235 153.891,110.588c86.811,5.846 185.06,-75.685 181.639,-84.731c-13.305,-19.676 -39.513,-75.64 -51.188,-141.8c-11.719,-66.419 2.254,-193.389 -0.517,-203.388c-8.577,-30.949 -191.747,-20.31 -193.084,39.041c1.179,5.531 1.594,107.248 -18.152,166.517c-19.213,57.671 -63.432,102.19 -72.589,113.773Z" style="fill:#fed62d;fill-rule:nonzero;"/><path d="M1104.74,757.298c-79.673,-0.578 -184.593,-23.587 -184.593,-27.293c14.037,-82.136 60.57,-242.306 210.613,-264.915c123.397,-18.594 187.54,87.734 194.281,178.384c4.373,58.844 -65.537,109.671 -171.178,113.104c-17.807,0.582 -34.099,0.829 -49.123,0.72Z" style="fill:#fed62d;fill-rule:nonzero;"/><g id="Crazy-Side-Eye" serif:id="Crazy Side Eye"><path d="M1134.22,558.816c15.701,-12.453 38.558,-9.816 51.012,5.885c12.453,15.7 9.816,38.558 -5.885,51.012c-15.701,12.453 -38.558,9.816 -51.012,-5.885c-12.453,-15.701 -9.816,-38.558 5.885,-51.012Z" style="fill:#fff;"/><path d="M1147.53,575.602c6.437,-5.105 15.808,-4.024 20.913,2.412c5.105,6.437 4.024,15.808 -2.412,20.913c-6.437,5.105 -15.808,4.024 -20.913,-2.412c-5.105,-6.437 -4.024,-15.808 2.412,-20.913Z"/></g><g><path d="M1244.83,708.359c-6.998,7.773 -10.486,26.822 -5.835,30.53c26.744,21.323 152.424,93.133 166.303,97.412c13.878,4.278 -160.468,-127.942 -160.468,-127.942Z" style="fill:#f46322;"/><path d="M1275.91,682.975c-3.183,1.592 -5.262,5.257 -11.629,10.757c-4.419,3.817 -11.749,8.236 -19.435,14.628c-5.465,42.934 134.239,109.811 153.751,124.376c23.968,17.891 55.317,5.261 34.929,-21.741c-19.897,-26.352 -96.332,-58.291 -122.352,-112.51c-15.794,-32.911 -35.264,-15.51 -35.264,-15.51Z" style="fill:#c43a05;fill-rule:nonzero;"/></g><g><path d="M1260.48,696.928c-4.463,0.766 -4.249,5.299 -2.239,5.788c15.476,3.763 61.081,16.885 95.098,16.79c95.989,-0.265 119.309,-25.62 119.309,-25.62c0,-0 -47.39,8.056 -71.339,9.055c-33.342,1.39 -105.238,0.287 -128.709,-0.715c-4.405,-0.189 -9.262,-5.788 -12.12,-5.298Z" style="fill:#f46322;"/><path d="M1403.55,644.881c32.824,6.976 125.615,-10.826 90.097,34.752c-37.062,47.558 -258.965,29.984 -235.283,17.341c30.363,-16.21 21.043,-67.484 16.842,-84.503c-4.202,-17.023 55.932,27.362 45.903,6.186c36.514,20.206 50.201,19.372 82.441,26.224Z" style="fill:#f46322;fill-rule:nonzero;"/></g><path id="Neck-Front1" serif:id="Neck Front" d="M1183.03,1023.39c4.706,5.953 -68.719,97.189 -142.124,102.132c-80.173,5.4 -170.91,-69.897 -167.75,-78.252c12.287,-18.171 36.492,-69.856 47.273,-130.957c10.824,-61.34 -2.081,-178.602 0.478,-187.836c7.921,-28.583 177.086,-18.758 178.32,36.056c-1.089,5.108 -1.471,99.047 16.764,153.784c17.744,53.261 58.583,94.376 67.039,105.073Z" style="fill:#fed62d;fill-rule:nonzero;"/></g><g><path d="M1394.68,442.118c1.439,-2.922 4.393,-9.482 1.032,-12.993c-3.361,-3.511 -16.51,-9.758 -21.197,-8.073c-4.688,1.686 -9.02,13.919 -6.926,18.186c2.094,4.268 14.972,6.942 19.487,7.422c3.456,0.367 6.408,-2.113 7.604,-4.542Zm12.148,-31.017c-3.678,5.248 -24.033,-2.514 -23.35,-8.892c1.902,-17.766 24.393,-82.903 34.765,-97.704c4.254,-6.07 28.259,1.521 27.469,8.898c-1.903,17.766 -28.512,82.897 -38.884,97.698Z" style="fill:#3168d3;"/><path d="M1044.1,385.499c-0.22,-4.471 -1.047,-14.322 -7.426,-16.298c-6.379,-1.977 -26.343,-0.712 -30.85,4.439c-4.507,5.151 -1.553,22.736 3.808,26.467c5.362,3.731 22.617,-1.646 28.362,-4.081c4.396,-1.863 6.289,-6.812 6.106,-10.527Zm-6.093,-45.365c-0.918,8.757 -30.549,13.008 -33.983,4.889c-9.563,-22.612 -25.984,-115.866 -23.394,-140.566c1.062,-10.129 34.964,-17.02 38.935,-7.629c9.563,22.612 21.032,118.606 18.442,143.306Z" style="fill:#3168d3;"/><path d="M876.86,572.991c-0.142,-2.88 -0.675,-9.228 -4.785,-10.501c-4.111,-1.274 -16.974,-0.459 -19.878,2.86c-2.904,3.319 -1.001,14.65 2.454,17.054c3.455,2.404 14.573,-1.061 18.274,-2.63c2.833,-1.2 4.053,-4.389 3.935,-6.783Zm-3.926,-29.23c-0.592,5.642 -19.684,8.381 -21.897,3.15c-6.161,-14.57 -16.743,-74.657 -15.074,-90.572c0.685,-6.527 22.529,-10.967 25.088,-4.916c6.162,14.57 13.552,76.423 11.883,92.338Z" style="fill:#3168d3;"/></g></g></svg>