<?xml version="1.0" encoding="UTF-8" standalone="no"?><!DOCTYPE svg PUBLIC "-//W3C//DTD SVG 1.1//EN" "http://www.w3.org/Graphics/SVG/1.1/DTD/svg11.dtd"><svg width="100%" height="100%" viewBox="0 0 2084 2084" version="1.1" xmlns="http://www.w3.org/2000/svg" xmlns:xlink="http://www.w3.org/1999/xlink" xml:space="preserve" xmlns:serif="http://www.serif.com/" style="fill-rule:evenodd;clip-rule:evenodd;stroke-linejoin:round;stroke-miterlimit:2;"><rect id="smart-duck" x="0" y="-0" width="2083.33" height="2083.33" style="fill:none;"/><g><g><path d="M1061.14,1725.57l0,77.989l-150.951,54.094c0,-0 62.266,37.736 20.125,110.697c77.363,-47.172 129.569,33.335 129.569,33.335l68.293,-167.22l0.54,-125.609l-67.576,16.714Z" style="fill:#f46322;fill-rule:nonzero;"/><path d="M846.535,1710.05l0,75.332l-115.557,29.732c-0,0 26.363,28.608 -3.37,57.218c40.951,-14.022 55.536,28.051 55.536,28.051l112.158,-93.065l-0,-93.682l-48.767,-3.586Z" style="fill:#f46322;fill-rule:nonzero;"/><path d="M1111.35,954.745c0,-0 10.43,-16.105 14.229,-25.008c4.444,-10.414 8.396,-20.773 11.857,-31.08c15.086,-45.037 22.716,-89.956 22.716,-134.71c-0,-24.973 -2.43,-49.329 -7.29,-72.944c-0.034,-0.166 -0.073,-0.326 -0.107,-0.489c-16.292,-95.337 -70.196,-280.759 -244.352,-307.002c-143.229,-21.582 -217.681,101.834 -225.505,207.053c-5.076,68.301 76.069,127.296 198.689,131.281c20.668,0.675 39.578,0.962 57.018,0.836c2.708,12.703 4.061,25.856 4.061,39.401c-0,18.874 -1.865,37.182 -5.594,54.754c-3.786,17.74 -10.113,35.315 -18.93,52.946c-8.87,17.684 -20.342,35.767 -34.525,54.413c-14.183,18.59 -17.087,24.683 -37.938,46.1c0,-0 -73.425,48.678 -107.441,74.838c-34.072,26.164 -63.396,55.604 -87.92,88.373c-24.637,32.773 -43.848,68.257 -57.691,106.342c-13.845,38.141 -20.794,78.6 -20.794,121.486c-0,60.516 12.149,114.871 36.389,163.069c24.24,48.255 56.222,89.335 95.944,123.407c39.666,34.019 84.925,60.008 135.725,77.92c2.202,0.79 4.407,1.583 6.665,2.261c16.16,5.538 32.436,10.113 48.764,13.786c32.66,7.29 65.714,10.963 99.108,10.963c22.659,-0 44.922,-0.959 66.732,-2.883c22.941,-1.977 45.375,-5.085 67.41,-9.208c36.898,-6.839 72.497,-16.725 106.85,-29.499c74.415,-27.741 141.488,-66.163 201.439,-115.321c0,0 82.214,-61.197 141.769,-155.049c110.748,-170.531 145.048,-393.217 122.557,-436.443c-10.903,-21.017 -43.62,18.761 -59.102,86.059c21.642,-101.257 2.259,-104.593 -12.827,-91.141c-12.579,11.168 -27.019,48.817 -54.996,103.775c-26.944,52.927 -273.82,48.192 -273.82,48.192l-189.09,-196.478Z" style="fill:#fed62d;fill-rule:nonzero;"/><path d="M846.066,531.682c25.781,0.752 50.948,7.543 59.832,17.237c0,-0 14.656,-36.07 -10.302,-44.637c-32.198,-11.052 -49.53,27.4 -49.53,27.4Z" style="fill-rule:nonzero;"/></g><g><path d="M775.992,665.878c8.122,9.021 12.17,31.132 6.772,35.436c-31.043,24.75 -176.92,108.101 -193.029,113.067c-16.11,4.966 186.257,-148.503 186.257,-148.503Z" style="fill:#f46322;"/><path d="M739.916,636.414c3.695,1.848 6.108,6.102 13.498,12.486c5.129,4.43 13.637,9.559 22.559,16.979c6.342,49.833 -155.813,127.458 -178.462,144.364c-27.819,20.766 -64.206,6.107 -40.541,-25.235c23.094,-30.587 111.813,-67.659 142.015,-130.592c18.332,-38.2 40.931,-18.002 40.931,-18.002Z" style="fill:#c43a05;fill-rule:nonzero;"/></g><g><path d="M757.826,652.61c5.181,0.889 4.932,6.15 2.599,6.717c-17.964,4.368 -70.898,19.599 -110.381,19.489c-111.416,-0.308 -138.484,-29.738 -138.484,-29.738c-0,-0 55.006,9.351 82.805,10.51c38.699,1.614 122.15,0.333 149.393,-0.83c5.113,-0.218 10.751,-6.717 14.068,-6.148Z" style="fill:#f46322;"/><path d="M591.766,592.198c-38.1,8.097 -145.804,-12.566 -104.577,40.337c43.018,55.2 300.584,34.803 273.095,20.128c-35.242,-18.815 -24.425,-78.329 -19.548,-98.083c4.877,-19.76 -64.921,31.759 -53.28,7.179c-42.383,23.454 -58.269,22.486 -95.69,30.439Z" style="fill:#f46322;fill-rule:nonzero;"/></g><g><path d="M764.85,147.079c14.643,-15.115 73.688,-26.452 90.221,-26.452c16.533,0 90.221,3.307 109.588,18.422c19.367,15.116 49.126,28.814 56.211,76.995c7.085,48.181 -23.146,121.87 -32.593,137.93c-9.447,16.06 -34.482,48.181 -42.985,52.432c-8.502,4.251 -44.874,10.865 -58.1,12.282c-13.227,1.417 -40.624,2.361 -49.599,1.889c-8.974,-0.472 -37.789,-8.975 -43.457,-19.367c-5.668,-10.392 -19.367,-35.427 -26.452,-44.874c-7.086,-9.447 -46.292,-60.27 -41.568,-118.231c4.724,-57.96 24.09,-75.91 38.734,-91.026Z" style="fill:#e4523d;"/><path d="M866.97,162.56c-0,0 -10.172,-37.577 -10.753,-41.933c-0.58,-4.356 -3.676,-23.317 -4.837,-26.025c-1.16,-2.709 -5.417,-7.933 1.548,-10.835c6.965,-2.902 9.868,-1.354 10.255,2.515c0.387,3.87 -2.322,8.9 -2.129,17.607c0.194,8.706 11.619,58.934 11.619,58.934l-5.703,-0.263Z" style="fill:#5b5b5b;"/><path d="M872.163,162.823c0,0 -2.564,-11.144 1.461,-18.264c4.024,-7.12 28.943,-48.756 57.732,-56.185c28.79,-7.429 33.123,-7.12 39.315,-6.346c6.191,0.774 34.825,13.002 34.825,13.002c0,-0 -4.489,-0.31 -8.822,0.464c-4.334,0.774 -22.134,14.704 -32.04,19.967c-9.906,5.262 -39.623,15.306 -51.696,19.106c-12.073,3.801 -38.283,12.933 -38.85,15.564c-0.567,2.631 -1.925,12.692 -1.925,12.692Z" style="fill:#3e9c0d;"/></g></g><path d="M1294.5,472.426c11.584,-5.744 25.41,-6.911 38.496,-2.117c25.307,9.27 38.327,37.342 29.057,62.649c-16.28,44.446 -88.201,65.444 -112.096,56.691c-24.171,-8.854 -62.021,-71.255 -46.126,-114.647c9.27,-25.308 37.343,-38.328 62.65,-29.058c13.086,4.794 22.887,14.615 28.019,26.482Z" style="fill:#3168d3;"/><path d="M562.088,311.415c2.781,-8.941 9.082,-16.769 18.136,-21.229c17.51,-8.626 38.729,-1.413 47.354,16.096c15.149,30.752 -9.806,78.935 -26.339,87.079c-16.723,8.238 -68.343,-3.127 -83.133,-33.15c-8.625,-17.51 -1.413,-38.729 16.097,-47.354c9.055,-4.461 19.101,-4.686 27.885,-1.442Z" style="fill:#3168d3;"/></svg>